<mxfile host="Electron" modified="2024-02-08T02:40:20.809Z" agent="Mozilla/5.0 (X11; Linux x86_64) AppleWebKit/537.36 (KHTML, like Gecko) draw.io/22.1.21 Chrome/120.0.6099.109 Electron/28.1.0 Safari/537.36" etag="aTV5sryIfPh7UH-K36Lk" version="22.1.21" type="device">
  <diagram name="PÃ¡gina-1" id="O7MBfEGZBoNdr1yW5oVu">
    <mxGraphModel dx="1429" dy="907" grid="1" gridSize="10" guides="1" tooltips="1" connect="1" arrows="1" fold="1" page="1" pageScale="1" pageWidth="827" pageHeight="1169" math="0" shadow="0">
      <root>
        <mxCell id="0" />
        <mxCell id="1" parent="0" />
        <mxCell id="AHUMnntUv6HniEayIjRY-2" value="" style="group;strokeColor=#232136;fillColor=#232136;strokeWidth=25;" parent="1" vertex="1" connectable="0">
          <mxGeometry x="56.00000000000003" y="530" width="714.03" height="580" as="geometry" />
        </mxCell>
        <mxCell id="yKTz0fdrUKhPqo3VoGnw-38" value="Start" style="ellipse;whiteSpace=wrap;html=1;aspect=fixed;strokeColor=#DB918D;fontColor=#FFFFFF;fillColor=none;strokeWidth=3;" parent="AHUMnntUv6HniEayIjRY-2" vertex="1">
          <mxGeometry x="66.07999999999998" y="262" width="50" height="50" as="geometry" />
        </mxCell>
        <mxCell id="yKTz0fdrUKhPqo3VoGnw-41" value="Check next location" style="rounded=1;whiteSpace=wrap;html=1;strokeColor=#DB918D;fontColor=#FFFFFF;fillColor=none;strokeWidth=3;" parent="AHUMnntUv6HniEayIjRY-2" vertex="1">
          <mxGeometry x="279.05999999999995" y="77" width="120" height="30" as="geometry" />
        </mxCell>
        <mxCell id="yKTz0fdrUKhPqo3VoGnw-42" value="Child Locations or &lt;br&gt;data requirements" style="rhombus;whiteSpace=wrap;html=1;rounded=0;strokeColor=#DB918D;strokeWidth=3;align=center;verticalAlign=middle;fontFamily=Helvetica;fontSize=11;fontColor=#FFFFFF;fillColor=none;spacingTop=-1;" parent="AHUMnntUv6HniEayIjRY-2" vertex="1">
          <mxGeometry x="480.02" y="52" width="138.06" height="80" as="geometry" />
        </mxCell>
        <mxCell id="yKTz0fdrUKhPqo3VoGnw-43" value="" style="edgeStyle=orthogonalEdgeStyle;shape=connector;curved=0;rounded=1;orthogonalLoop=1;jettySize=auto;html=1;labelBackgroundColor=default;strokeColor=#DB918D;strokeWidth=3;align=center;verticalAlign=middle;fontFamily=Helvetica;fontSize=12;fontColor=#FFFFFF;endArrow=openThin;endFill=0;fillColor=#FAE5C7;" parent="AHUMnntUv6HniEayIjRY-2" source="yKTz0fdrUKhPqo3VoGnw-41" target="yKTz0fdrUKhPqo3VoGnw-42" edge="1">
          <mxGeometry relative="1" as="geometry">
            <mxPoint x="581.0900000000001" y="92" as="targetPoint" />
          </mxGeometry>
        </mxCell>
        <mxCell id="yKTz0fdrUKhPqo3VoGnw-44" value="Data requirement" style="text;html=1;strokeColor=none;fillColor=none;align=left;verticalAlign=middle;whiteSpace=wrap;rounded=0;fontSize=12;fontFamily=Helvetica;fontColor=#FFFFFF;" parent="AHUMnntUv6HniEayIjRY-2" vertex="1">
          <mxGeometry x="553.0200000000001" y="132" width="60.06" height="30" as="geometry" />
        </mxCell>
        <mxCell id="yKTz0fdrUKhPqo3VoGnw-45" style="edgeStyle=orthogonalEdgeStyle;shape=connector;curved=0;rounded=1;orthogonalLoop=1;jettySize=auto;html=1;exitX=0.5;exitY=1;exitDx=0;exitDy=0;entryX=1;entryY=0.5;entryDx=0;entryDy=0;labelBackgroundColor=default;strokeColor=#DB918D;strokeWidth=3;align=center;verticalAlign=middle;fontFamily=Helvetica;fontSize=12;fontColor=#FFFFFF;endArrow=openThin;endFill=0;fillColor=#FAE5C7;" parent="AHUMnntUv6HniEayIjRY-2" source="yKTz0fdrUKhPqo3VoGnw-46" target="yKTz0fdrUKhPqo3VoGnw-42" edge="1">
          <mxGeometry relative="1" as="geometry">
            <Array as="points">
              <mxPoint x="654.03" y="92" />
            </Array>
          </mxGeometry>
        </mxCell>
        <mxCell id="yKTz0fdrUKhPqo3VoGnw-46" value="Check next child location." style="rounded=1;whiteSpace=wrap;html=1;strokeColor=#DB918D;fontColor=#FFFFFF;fillColor=none;strokeWidth=3;" parent="AHUMnntUv6HniEayIjRY-2" vertex="1">
          <mxGeometry x="594.03" width="120" height="40" as="geometry" />
        </mxCell>
        <mxCell id="yKTz0fdrUKhPqo3VoGnw-47" style="edgeStyle=orthogonalEdgeStyle;shape=connector;curved=0;rounded=1;orthogonalLoop=1;jettySize=auto;html=1;labelBackgroundColor=default;strokeColor=#DB918D;strokeWidth=3;align=center;verticalAlign=middle;fontFamily=Helvetica;fontSize=12;fontColor=#FFFFFF;endArrow=openThin;endFill=0;fillColor=#FAE5C7;exitX=0.5;exitY=0;exitDx=0;exitDy=0;" parent="AHUMnntUv6HniEayIjRY-2" source="yKTz0fdrUKhPqo3VoGnw-42" target="yKTz0fdrUKhPqo3VoGnw-46" edge="1">
          <mxGeometry relative="1" as="geometry">
            <Array as="points">
              <mxPoint x="549.03" y="20" />
            </Array>
          </mxGeometry>
        </mxCell>
        <mxCell id="yKTz0fdrUKhPqo3VoGnw-48" value="Data requirements &lt;br&gt;left to check?" style="rhombus;whiteSpace=wrap;html=1;rounded=0;strokeColor=#DB918D;strokeWidth=3;align=center;verticalAlign=middle;fontFamily=Helvetica;fontSize=11;fontColor=#FFFFFF;fillColor=none;spacingTop=4;" parent="AHUMnntUv6HniEayIjRY-2" vertex="1">
          <mxGeometry x="485.02" y="185" width="128.06" height="80" as="geometry" />
        </mxCell>
        <mxCell id="yKTz0fdrUKhPqo3VoGnw-49" value="" style="edgeStyle=orthogonalEdgeStyle;shape=connector;curved=0;rounded=1;orthogonalLoop=1;jettySize=auto;html=1;labelBackgroundColor=default;strokeColor=#DB918D;strokeWidth=3;align=center;verticalAlign=middle;fontFamily=Helvetica;fontSize=12;fontColor=#FFFFFF;endArrow=openThin;endFill=0;fillColor=#FAE5C7;" parent="AHUMnntUv6HniEayIjRY-2" source="yKTz0fdrUKhPqo3VoGnw-42" target="yKTz0fdrUKhPqo3VoGnw-48" edge="1">
          <mxGeometry relative="1" as="geometry">
            <mxPoint x="548.98" y="162" as="targetPoint" />
            <Array as="points">
              <mxPoint x="548.98" y="152" />
              <mxPoint x="548.98" y="152" />
            </Array>
          </mxGeometry>
        </mxCell>
        <mxCell id="yKTz0fdrUKhPqo3VoGnw-50" value="Child&lt;br&gt;locations" style="text;html=1;strokeColor=none;fillColor=none;align=right;verticalAlign=middle;whiteSpace=wrap;rounded=0;fontSize=12;fontFamily=Helvetica;fontColor=#FFFFFF;" parent="AHUMnntUv6HniEayIjRY-2" vertex="1">
          <mxGeometry x="462.53" y="24" width="86.35" height="25" as="geometry" />
        </mxCell>
        <mxCell id="24-RcjtqaWTgur0IXHR3-10" style="edgeStyle=orthogonalEdgeStyle;shape=connector;curved=0;rounded=1;orthogonalLoop=1;jettySize=auto;html=1;labelBackgroundColor=default;strokeColor=#DB918D;strokeWidth=3;align=center;verticalAlign=middle;fontFamily=Helvetica;fontSize=12;fontColor=#FFFFFF;endArrow=openThin;endFill=0;fillColor=#FAE5C7;entryX=0.5;entryY=1;entryDx=0;entryDy=0;" parent="AHUMnntUv6HniEayIjRY-2" source="yKTz0fdrUKhPqo3VoGnw-56" target="yKTz0fdrUKhPqo3VoGnw-41" edge="1">
          <mxGeometry relative="1" as="geometry">
            <Array as="points">
              <mxPoint x="339.03" y="150" />
            </Array>
          </mxGeometry>
        </mxCell>
        <mxCell id="yKTz0fdrUKhPqo3VoGnw-56" value="Locations&lt;br&gt;left to check?" style="rhombus;whiteSpace=wrap;html=1;rounded=0;strokeColor=#DB918D;strokeWidth=3;align=center;verticalAlign=middle;fontFamily=Helvetica;fontSize=11;fontColor=#FFFFFF;fillColor=none;spacingTop=-3;" parent="AHUMnntUv6HniEayIjRY-2" vertex="1">
          <mxGeometry x="113.31" y="118.75" width="109.03" height="62.5" as="geometry" />
        </mxCell>
        <mxCell id="24-RcjtqaWTgur0IXHR3-12" style="edgeStyle=orthogonalEdgeStyle;shape=connector;curved=0;rounded=1;orthogonalLoop=1;jettySize=auto;html=1;exitX=0;exitY=0.5;exitDx=0;exitDy=0;entryX=0.5;entryY=1;entryDx=0;entryDy=0;labelBackgroundColor=default;strokeColor=#DB918D;strokeWidth=3;align=center;verticalAlign=middle;fontFamily=Helvetica;fontSize=12;fontColor=#FFFFFF;endArrow=openThin;endFill=0;fillColor=#FAE5C7;" parent="AHUMnntUv6HniEayIjRY-2" source="yKTz0fdrUKhPqo3VoGnw-48" target="yKTz0fdrUKhPqo3VoGnw-56" edge="1">
          <mxGeometry relative="1" as="geometry">
            <Array as="points">
              <mxPoint x="454.03" y="225" />
              <mxPoint x="454.03" y="200" />
              <mxPoint x="168.02999999999997" y="200" />
            </Array>
          </mxGeometry>
        </mxCell>
        <mxCell id="yKTz0fdrUKhPqo3VoGnw-59" value="No" style="text;html=1;strokeColor=none;fillColor=none;align=center;verticalAlign=middle;whiteSpace=wrap;rounded=0;fontSize=12;fontFamily=Helvetica;fontColor=#FFFFFF;" parent="AHUMnntUv6HniEayIjRY-2" vertex="1">
          <mxGeometry x="176.39" y="102.25" width="23.5" height="18.5" as="geometry" />
        </mxCell>
        <mxCell id="yKTz0fdrUKhPqo3VoGnw-60" value="Yes" style="text;html=1;strokeColor=none;fillColor=none;align=center;verticalAlign=middle;whiteSpace=wrap;rounded=0;fontSize=12;fontFamily=Helvetica;fontColor=#FFFFFF;" parent="AHUMnntUv6HniEayIjRY-2" vertex="1">
          <mxGeometry x="214.02999999999994" y="154.5" width="36.25" height="20" as="geometry" />
        </mxCell>
        <mxCell id="yKTz0fdrUKhPqo3VoGnw-63" value="Data Requirement Status?" style="rhombus;whiteSpace=wrap;html=1;rounded=0;strokeColor=#DB918D;strokeWidth=3;align=center;verticalAlign=middle;fontFamily=Helvetica;fontSize=11;fontColor=#FFFFFF;fillColor=none;spacingTop=7;" parent="AHUMnntUv6HniEayIjRY-2" vertex="1">
          <mxGeometry x="292.22" y="219.5" width="128.06" height="63" as="geometry" />
        </mxCell>
        <mxCell id="3HJj5yRui7-hpwzC4WDt-18" style="edgeStyle=orthogonalEdgeStyle;shape=connector;curved=0;rounded=1;orthogonalLoop=1;jettySize=auto;html=1;labelBackgroundColor=default;strokeColor=#DB918D;strokeWidth=3;align=center;verticalAlign=middle;fontFamily=Helvetica;fontSize=12;fontColor=#FFFFFF;endArrow=openThin;endFill=0;fillColor=#FAE5C7;exitX=0;exitY=0.5;exitDx=0;exitDy=0;" parent="AHUMnntUv6HniEayIjRY-2" source="yKTz0fdrUKhPqo3VoGnw-48" target="yKTz0fdrUKhPqo3VoGnw-63" edge="1">
          <mxGeometry relative="1" as="geometry">
            <mxPoint x="461.23" y="248" as="targetPoint" />
            <Array as="points">
              <mxPoint x="454.03" y="225" />
              <mxPoint x="454.03" y="251" />
            </Array>
          </mxGeometry>
        </mxCell>
        <mxCell id="3HJj5yRui7-hpwzC4WDt-23" style="edgeStyle=orthogonalEdgeStyle;shape=connector;curved=0;rounded=1;orthogonalLoop=1;jettySize=auto;html=1;labelBackgroundColor=default;strokeColor=#DB918D;strokeWidth=3;align=center;verticalAlign=middle;fontFamily=Helvetica;fontSize=12;fontColor=#FFFFFF;endArrow=openThin;endFill=0;fillColor=#FAE5C7;" parent="AHUMnntUv6HniEayIjRY-2" source="yKTz0fdrUKhPqo3VoGnw-65" target="yKTz0fdrUKhPqo3VoGnw-48" edge="1">
          <mxGeometry relative="1" as="geometry" />
        </mxCell>
        <mxCell id="yKTz0fdrUKhPqo3VoGnw-65" value="Nothing to do" style="whiteSpace=wrap;html=1;fontSize=12;fillColor=none;strokeColor=#DB918D;fontColor=#FFFFFF;rounded=1;strokeWidth=3;spacingTop=0;" parent="AHUMnntUv6HniEayIjRY-2" vertex="1">
          <mxGeometry x="296.25" y="307.25" width="120" height="25.75" as="geometry" />
        </mxCell>
        <mxCell id="3HJj5yRui7-hpwzC4WDt-22" style="edgeStyle=orthogonalEdgeStyle;shape=connector;curved=0;rounded=1;orthogonalLoop=1;jettySize=auto;html=1;exitX=0.5;exitY=1;exitDx=0;exitDy=0;entryX=0.5;entryY=0;entryDx=0;entryDy=0;labelBackgroundColor=default;strokeColor=#DB918D;strokeWidth=3;align=center;verticalAlign=middle;fontFamily=Helvetica;fontSize=12;fontColor=#FFFFFF;endArrow=openThin;endFill=0;fillColor=#FAE5C7;" parent="AHUMnntUv6HniEayIjRY-2" source="yKTz0fdrUKhPqo3VoGnw-63" target="yKTz0fdrUKhPqo3VoGnw-65" edge="1">
          <mxGeometry relative="1" as="geometry" />
        </mxCell>
        <mxCell id="yKTz0fdrUKhPqo3VoGnw-68" value="Coherent" style="text;html=1;strokeColor=none;fillColor=none;align=center;verticalAlign=middle;whiteSpace=wrap;rounded=0;fontSize=12;fontFamily=Helvetica;fontColor=#FFFFFF;" parent="AHUMnntUv6HniEayIjRY-2" vertex="1">
          <mxGeometry x="368.57000000000005" y="279.5" width="36.25" height="20" as="geometry" />
        </mxCell>
        <mxCell id="yKTz0fdrUKhPqo3VoGnw-69" value="Count components with coherent state" style="whiteSpace=wrap;html=1;fontSize=12;fillColor=none;strokeColor=#DB918D;fontColor=#FFFFFF;rounded=1;strokeWidth=3;spacingTop=0;" parent="AHUMnntUv6HniEayIjRY-2" vertex="1">
          <mxGeometry x="155.02999999999997" y="273.5" width="120" height="36.5" as="geometry" />
        </mxCell>
        <mxCell id="yKTz0fdrUKhPqo3VoGnw-104" style="edgeStyle=orthogonalEdgeStyle;shape=connector;curved=0;rounded=1;orthogonalLoop=1;jettySize=auto;html=1;labelBackgroundColor=default;strokeColor=#DB918D;strokeWidth=3;align=center;verticalAlign=middle;fontFamily=Helvetica;fontSize=12;fontColor=#FFFFFF;endArrow=openThin;endFill=0;fillColor=#FAE5C7;" parent="AHUMnntUv6HniEayIjRY-2" source="yKTz0fdrUKhPqo3VoGnw-63" target="yKTz0fdrUKhPqo3VoGnw-69" edge="1">
          <mxGeometry relative="1" as="geometry">
            <Array as="points">
              <mxPoint x="215.02999999999994" y="248" />
            </Array>
          </mxGeometry>
        </mxCell>
        <mxCell id="yKTz0fdrUKhPqo3VoGnw-72" value="Not coherent" style="text;html=1;strokeColor=none;fillColor=none;align=center;verticalAlign=middle;whiteSpace=wrap;rounded=0;fontSize=12;fontFamily=Helvetica;fontColor=#FFFFFF;" parent="AHUMnntUv6HniEayIjRY-2" vertex="1">
          <mxGeometry x="222.34" y="230" width="73.91" height="20" as="geometry" />
        </mxCell>
        <mxCell id="yKTz0fdrUKhPqo3VoGnw-83" value="What was last &lt;br&gt;attemped for&lt;br&gt;&amp;nbsp;component?" style="rhombus;whiteSpace=wrap;html=1;rounded=0;strokeColor=#DB918D;strokeWidth=3;align=center;verticalAlign=middle;fontFamily=Helvetica;fontSize=11;fontColor=#FFFFFF;fillColor=none;spacingTop=4;" parent="AHUMnntUv6HniEayIjRY-2" vertex="1">
          <mxGeometry x="155.02999999999997" y="416.5" width="128.06" height="80" as="geometry" />
        </mxCell>
        <mxCell id="3HJj5yRui7-hpwzC4WDt-29" style="edgeStyle=orthogonalEdgeStyle;shape=connector;curved=0;rounded=1;orthogonalLoop=1;jettySize=auto;html=1;labelBackgroundColor=default;strokeColor=#DB918D;strokeWidth=3;align=center;verticalAlign=middle;fontFamily=Helvetica;fontSize=12;fontColor=#FFFFFF;endArrow=openThin;endFill=0;fillColor=#FAE5C7;entryX=0.5;entryY=1;entryDx=0;entryDy=0;exitX=1;exitY=0.5;exitDx=0;exitDy=0;" parent="AHUMnntUv6HniEayIjRY-2" source="yKTz0fdrUKhPqo3VoGnw-88" target="yKTz0fdrUKhPqo3VoGnw-48" edge="1">
          <mxGeometry relative="1" as="geometry">
            <Array as="points">
              <mxPoint x="594.03" y="402" />
              <mxPoint x="594.03" y="360" />
              <mxPoint x="549.03" y="360" />
            </Array>
            <mxPoint x="549.03" y="380" as="sourcePoint" />
          </mxGeometry>
        </mxCell>
        <mxCell id="yKTz0fdrUKhPqo3VoGnw-88" value="&lt;font style=&quot;font-size: 11px;&quot;&gt;Add addition action to vector containing location and data requirement info&lt;/font&gt;" style="rounded=1;whiteSpace=wrap;html=1;strokeColor=#DB918D;strokeWidth=3;align=center;verticalAlign=middle;fontFamily=Helvetica;fontSize=12;fontColor=#FFFFFF;fillColor=none;spacingTop=0;" parent="AHUMnntUv6HniEayIjRY-2" vertex="1">
          <mxGeometry x="347.8399999999999" y="382" width="225.38" height="40" as="geometry" />
        </mxCell>
        <mxCell id="3HJj5yRui7-hpwzC4WDt-27" style="edgeStyle=orthogonalEdgeStyle;shape=connector;curved=0;rounded=1;orthogonalLoop=1;jettySize=auto;html=1;exitX=0.5;exitY=0;exitDx=0;exitDy=0;entryX=0;entryY=0.5;entryDx=0;entryDy=0;labelBackgroundColor=default;strokeColor=#DB918D;strokeWidth=3;align=center;verticalAlign=middle;fontFamily=Helvetica;fontSize=12;fontColor=#FFFFFF;endArrow=openThin;endFill=0;fillColor=#FAE5C7;" parent="AHUMnntUv6HniEayIjRY-2" source="yKTz0fdrUKhPqo3VoGnw-83" target="yKTz0fdrUKhPqo3VoGnw-88" edge="1">
          <mxGeometry relative="1" as="geometry">
            <Array as="points">
              <mxPoint x="219.02999999999994" y="402" />
            </Array>
          </mxGeometry>
        </mxCell>
        <mxCell id="yKTz0fdrUKhPqo3VoGnw-94" value="Add reconfiguration action to vector containing location, data requirement and component info" style="whiteSpace=wrap;html=1;fontSize=11;fillColor=none;strokeColor=#DB918D;fontColor=#FFFFFF;rounded=1;strokeWidth=3;spacingTop=0;" parent="AHUMnntUv6HniEayIjRY-2" vertex="1">
          <mxGeometry x="347.8399999999999" y="436" width="225.38" height="41" as="geometry" />
        </mxCell>
        <mxCell id="3HJj5yRui7-hpwzC4WDt-33" style="edgeStyle=orthogonalEdgeStyle;shape=connector;curved=0;rounded=1;orthogonalLoop=1;jettySize=auto;html=1;labelBackgroundColor=default;strokeColor=#DB918D;strokeWidth=3;align=center;verticalAlign=middle;fontFamily=Helvetica;fontSize=12;fontColor=#FFFFFF;endArrow=openThin;endFill=0;fillColor=#FAE5C7;" parent="AHUMnntUv6HniEayIjRY-2" source="yKTz0fdrUKhPqo3VoGnw-83" target="yKTz0fdrUKhPqo3VoGnw-94" edge="1">
          <mxGeometry relative="1" as="geometry" />
        </mxCell>
        <mxCell id="yKTz0fdrUKhPqo3VoGnw-92" value="Add restart action to vector containing location, data requirement and component info" style="whiteSpace=wrap;html=1;fontSize=11;fillColor=none;strokeColor=#DB918D;fontColor=#FFFFFF;rounded=1;strokeWidth=3;spacingTop=0;" parent="AHUMnntUv6HniEayIjRY-2" vertex="1">
          <mxGeometry x="347.8399999999999" y="490" width="225.38" height="41" as="geometry" />
        </mxCell>
        <mxCell id="3HJj5yRui7-hpwzC4WDt-34" style="edgeStyle=orthogonalEdgeStyle;shape=connector;curved=0;rounded=1;orthogonalLoop=1;jettySize=auto;html=1;labelBackgroundColor=default;strokeColor=#DB918D;strokeWidth=3;align=center;verticalAlign=middle;fontFamily=Helvetica;fontSize=12;fontColor=#FFFFFF;endArrow=openThin;endFill=0;fillColor=#FAE5C7;exitX=0.5;exitY=1;exitDx=0;exitDy=0;" parent="AHUMnntUv6HniEayIjRY-2" source="yKTz0fdrUKhPqo3VoGnw-83" target="yKTz0fdrUKhPqo3VoGnw-92" edge="1">
          <mxGeometry relative="1" as="geometry">
            <Array as="points">
              <mxPoint x="219.02999999999994" y="511" />
            </Array>
          </mxGeometry>
        </mxCell>
        <mxCell id="3HJj5yRui7-hpwzC4WDt-25" style="edgeStyle=orthogonalEdgeStyle;shape=connector;curved=0;rounded=1;orthogonalLoop=1;jettySize=auto;html=1;labelBackgroundColor=default;strokeColor=#DB918D;strokeWidth=3;align=center;verticalAlign=middle;fontFamily=Helvetica;fontSize=12;fontColor=#FFFFFF;endArrow=openThin;endFill=0;fillColor=#FAE5C7;" parent="AHUMnntUv6HniEayIjRY-2" source="yKTz0fdrUKhPqo3VoGnw-77" target="yKTz0fdrUKhPqo3VoGnw-88" edge="1">
          <mxGeometry relative="1" as="geometry">
            <Array as="points">
              <mxPoint x="454.03" y="361" />
            </Array>
          </mxGeometry>
        </mxCell>
        <mxCell id="yKTz0fdrUKhPqo3VoGnw-77" value="count &amp;lt; required?" style="rhombus;whiteSpace=wrap;html=1;rounded=0;strokeColor=#DB918D;strokeWidth=3;align=center;verticalAlign=middle;fontFamily=Helvetica;fontSize=11;fontColor=#FFFFFF;fillColor=none;spacingTop=-1;" parent="AHUMnntUv6HniEayIjRY-2" vertex="1">
          <mxGeometry x="151" y="331" width="128.06" height="59" as="geometry" />
        </mxCell>
        <mxCell id="yKTz0fdrUKhPqo3VoGnw-78" style="edgeStyle=orthogonalEdgeStyle;shape=connector;curved=0;rounded=1;orthogonalLoop=1;jettySize=auto;html=1;labelBackgroundColor=default;strokeColor=#DB918D;strokeWidth=3;align=center;verticalAlign=middle;fontFamily=Helvetica;fontSize=12;fontColor=#FFFFFF;endArrow=openThin;endFill=0;fillColor=#FAE5C7;" parent="AHUMnntUv6HniEayIjRY-2" source="yKTz0fdrUKhPqo3VoGnw-69" target="yKTz0fdrUKhPqo3VoGnw-77" edge="1">
          <mxGeometry relative="1" as="geometry" />
        </mxCell>
        <mxCell id="3HJj5yRui7-hpwzC4WDt-35" value="Yes" style="text;html=1;strokeColor=none;fillColor=none;align=center;verticalAlign=middle;whiteSpace=wrap;rounded=0;fontSize=12;fontFamily=Helvetica;fontColor=#FFFFFF;" parent="AHUMnntUv6HniEayIjRY-2" vertex="1">
          <mxGeometry x="267.03" y="340.5" width="36.25" height="20" as="geometry" />
        </mxCell>
        <mxCell id="3HJj5yRui7-hpwzC4WDt-37" value="Reconfig" style="text;html=1;strokeColor=none;fillColor=none;align=center;verticalAlign=middle;whiteSpace=wrap;rounded=0;fontSize=12;fontFamily=Helvetica;fontColor=#FFFFFF;" parent="AHUMnntUv6HniEayIjRY-2" vertex="1">
          <mxGeometry x="292.2199999999999" y="382" width="36.25" height="20" as="geometry" />
        </mxCell>
        <mxCell id="3HJj5yRui7-hpwzC4WDt-38" value="Restart" style="text;html=1;strokeColor=none;fillColor=none;align=center;verticalAlign=middle;whiteSpace=wrap;rounded=0;fontSize=12;fontFamily=Helvetica;fontColor=#FFFFFF;" parent="AHUMnntUv6HniEayIjRY-2" vertex="1">
          <mxGeometry x="292.2199999999999" y="436" width="36.25" height="20" as="geometry" />
        </mxCell>
        <mxCell id="3HJj5yRui7-hpwzC4WDt-39" value="None or Addition" style="text;html=1;strokeColor=none;fillColor=none;align=center;verticalAlign=middle;whiteSpace=wrap;rounded=0;fontSize=12;fontFamily=Helvetica;fontColor=#FFFFFF;" parent="AHUMnntUv6HniEayIjRY-2" vertex="1">
          <mxGeometry x="233.02999999999994" y="490" width="104.25" height="20" as="geometry" />
        </mxCell>
        <mxCell id="3HJj5yRui7-hpwzC4WDt-41" value="End" style="ellipse;whiteSpace=wrap;html=1;aspect=fixed;strokeColor=#DB918D;fontColor=#FFFFFF;fillColor=none;strokeWidth=3;" parent="AHUMnntUv6HniEayIjRY-2" vertex="1">
          <mxGeometry x="27.130000000000024" y="47" width="50" height="50" as="geometry" />
        </mxCell>
        <mxCell id="24-RcjtqaWTgur0IXHR3-15" style="edgeStyle=orthogonalEdgeStyle;shape=connector;curved=0;rounded=1;orthogonalLoop=1;jettySize=auto;html=1;labelBackgroundColor=default;strokeColor=#DB918D;strokeWidth=3;align=center;verticalAlign=middle;fontFamily=Helvetica;fontSize=12;fontColor=#FFFFFF;endArrow=openThin;endFill=0;fillColor=#FAE5C7;" parent="AHUMnntUv6HniEayIjRY-2" source="3HJj5yRui7-hpwzC4WDt-44" target="3HJj5yRui7-hpwzC4WDt-41" edge="1">
          <mxGeometry relative="1" as="geometry" />
        </mxCell>
        <mxCell id="3HJj5yRui7-hpwzC4WDt-44" value="Return vector containing actions" style="rounded=1;whiteSpace=wrap;html=1;strokeColor=#DB918D;fontColor=#FFFFFF;fillColor=none;strokeWidth=3;" parent="AHUMnntUv6HniEayIjRY-2" vertex="1">
          <mxGeometry x="105.30999999999997" y="52" width="125.83" height="40" as="geometry" />
        </mxCell>
        <mxCell id="24-RcjtqaWTgur0IXHR3-14" style="edgeStyle=orthogonalEdgeStyle;shape=connector;curved=0;rounded=1;orthogonalLoop=1;jettySize=auto;html=1;exitX=0.5;exitY=0;exitDx=0;exitDy=0;entryX=0.5;entryY=1;entryDx=0;entryDy=0;labelBackgroundColor=default;strokeColor=#DB918D;strokeWidth=3;align=center;verticalAlign=middle;fontFamily=Helvetica;fontSize=12;fontColor=#FFFFFF;endArrow=openThin;endFill=0;fillColor=#FAE5C7;" parent="AHUMnntUv6HniEayIjRY-2" source="yKTz0fdrUKhPqo3VoGnw-56" target="3HJj5yRui7-hpwzC4WDt-44" edge="1">
          <mxGeometry relative="1" as="geometry" />
        </mxCell>
        <mxCell id="3HJj5yRui7-hpwzC4WDt-50" value="No" style="text;html=1;strokeColor=none;fillColor=none;align=center;verticalAlign=middle;whiteSpace=wrap;rounded=0;fontSize=12;fontFamily=Helvetica;fontColor=#FFFFFF;" parent="AHUMnntUv6HniEayIjRY-2" vertex="1">
          <mxGeometry x="423.9200000000001" y="181.25" width="23.5" height="18.5" as="geometry" />
        </mxCell>
        <mxCell id="3HJj5yRui7-hpwzC4WDt-51" value="Yes" style="text;html=1;strokeColor=none;fillColor=none;align=center;verticalAlign=middle;whiteSpace=wrap;rounded=0;fontSize=12;fontFamily=Helvetica;fontColor=#FFFFFF;" parent="AHUMnntUv6HniEayIjRY-2" vertex="1">
          <mxGeometry x="420.28" y="253.5" width="36.25" height="20" as="geometry" />
        </mxCell>
        <mxCell id="24-RcjtqaWTgur0IXHR3-11" style="edgeStyle=orthogonalEdgeStyle;shape=connector;curved=0;rounded=1;orthogonalLoop=1;jettySize=auto;html=1;entryX=0;entryY=0.5;entryDx=0;entryDy=0;labelBackgroundColor=default;strokeColor=#DB918D;strokeWidth=3;align=center;verticalAlign=middle;fontFamily=Helvetica;fontSize=12;fontColor=#FFFFFF;endArrow=openThin;endFill=0;fillColor=#FAE5C7;" parent="AHUMnntUv6HniEayIjRY-2" source="weasKUzhQbfyZyFGf2sW-3" target="yKTz0fdrUKhPqo3VoGnw-56" edge="1">
          <mxGeometry relative="1" as="geometry" />
        </mxCell>
        <mxCell id="weasKUzhQbfyZyFGf2sW-3" value="Get root location from application" style="rounded=1;whiteSpace=wrap;html=1;strokeColor=#DB918D;fontColor=#FFFFFF;fillColor=none;strokeWidth=3;" parent="AHUMnntUv6HniEayIjRY-2" vertex="1">
          <mxGeometry x="27.129999999999967" y="200" width="127.9" height="40" as="geometry" />
        </mxCell>
        <mxCell id="3HJj5yRui7-hpwzC4WDt-42" style="edgeStyle=orthogonalEdgeStyle;shape=connector;curved=0;rounded=1;orthogonalLoop=1;jettySize=auto;html=1;labelBackgroundColor=default;strokeColor=#DB918D;strokeWidth=3;align=center;verticalAlign=middle;fontFamily=Helvetica;fontSize=12;fontColor=#FFFFFF;endArrow=openThin;endFill=0;fillColor=#FAE5C7;" parent="AHUMnntUv6HniEayIjRY-2" source="yKTz0fdrUKhPqo3VoGnw-38" target="weasKUzhQbfyZyFGf2sW-3" edge="1">
          <mxGeometry relative="1" as="geometry">
            <mxPoint x="-48.460315428571334" y="129.5571428571427" as="targetPoint" />
          </mxGeometry>
        </mxCell>
        <mxCell id="24-RcjtqaWTgur0IXHR3-3" value="Get components with non-coherent state" style="whiteSpace=wrap;html=1;fontSize=12;fillColor=none;strokeColor=#DB918D;fontColor=#FFFFFF;rounded=1;strokeWidth=3;spacingTop=0;" parent="AHUMnntUv6HniEayIjRY-2" vertex="1">
          <mxGeometry x="4.029999999999973" y="342.25" width="120" height="36.5" as="geometry" />
        </mxCell>
        <mxCell id="24-RcjtqaWTgur0IXHR3-4" style="edgeStyle=orthogonalEdgeStyle;shape=connector;curved=0;rounded=1;orthogonalLoop=1;jettySize=auto;html=1;labelBackgroundColor=default;strokeColor=#DB918D;strokeWidth=3;align=center;verticalAlign=middle;fontFamily=Helvetica;fontSize=12;fontColor=#FFFFFF;endArrow=openThin;endFill=0;fillColor=#FAE5C7;" parent="AHUMnntUv6HniEayIjRY-2" source="yKTz0fdrUKhPqo3VoGnw-77" target="24-RcjtqaWTgur0IXHR3-3" edge="1">
          <mxGeometry relative="1" as="geometry" />
        </mxCell>
        <mxCell id="24-RcjtqaWTgur0IXHR3-5" value="No" style="text;html=1;strokeColor=none;fillColor=none;align=center;verticalAlign=middle;whiteSpace=wrap;rounded=0;fontSize=12;fontFamily=Helvetica;fontColor=#FFFFFF;" parent="AHUMnntUv6HniEayIjRY-2" vertex="1">
          <mxGeometry x="133.02999999999997" y="339.5" width="36.25" height="20" as="geometry" />
        </mxCell>
        <mxCell id="24-RcjtqaWTgur0IXHR3-8" style="edgeStyle=orthogonalEdgeStyle;shape=connector;curved=0;rounded=1;orthogonalLoop=1;jettySize=auto;html=1;labelBackgroundColor=default;strokeColor=#DB918D;strokeWidth=3;align=center;verticalAlign=middle;fontFamily=Helvetica;fontSize=12;fontColor=#FFFFFF;endArrow=openThin;endFill=0;fillColor=#FAE5C7;entryX=0.5;entryY=1;entryDx=0;entryDy=0;" parent="AHUMnntUv6HniEayIjRY-2" source="24-RcjtqaWTgur0IXHR3-6" target="yKTz0fdrUKhPqo3VoGnw-48" edge="1">
          <mxGeometry relative="1" as="geometry">
            <Array as="points">
              <mxPoint x="64.02999999999997" y="580" />
              <mxPoint x="624.03" y="580" />
              <mxPoint x="624.03" y="320" />
              <mxPoint x="549.03" y="320" />
            </Array>
          </mxGeometry>
        </mxCell>
        <mxCell id="24-RcjtqaWTgur0IXHR3-16" style="edgeStyle=orthogonalEdgeStyle;shape=connector;curved=0;rounded=1;orthogonalLoop=1;jettySize=auto;html=1;labelBackgroundColor=default;strokeColor=#DB918D;strokeWidth=3;align=center;verticalAlign=middle;fontFamily=Helvetica;fontSize=12;fontColor=#FFFFFF;endArrow=openThin;endFill=0;fillColor=#FAE5C7;" parent="AHUMnntUv6HniEayIjRY-2" source="24-RcjtqaWTgur0IXHR3-6" target="yKTz0fdrUKhPqo3VoGnw-83" edge="1">
          <mxGeometry relative="1" as="geometry" />
        </mxCell>
        <mxCell id="24-RcjtqaWTgur0IXHR3-6" value="Components left &lt;br&gt;to check?" style="rhombus;whiteSpace=wrap;html=1;rounded=0;strokeColor=#DB918D;strokeWidth=3;align=center;verticalAlign=middle;fontFamily=Helvetica;fontSize=11;fontColor=#FFFFFF;fillColor=none;spacingTop=6;" parent="AHUMnntUv6HniEayIjRY-2" vertex="1">
          <mxGeometry y="427" width="128.06" height="59" as="geometry" />
        </mxCell>
        <mxCell id="24-RcjtqaWTgur0IXHR3-17" style="edgeStyle=orthogonalEdgeStyle;shape=connector;curved=0;rounded=1;orthogonalLoop=1;jettySize=auto;html=1;exitX=1;exitY=0.5;exitDx=0;exitDy=0;entryX=1;entryY=1;entryDx=0;entryDy=0;labelBackgroundColor=default;strokeColor=#DB918D;strokeWidth=3;align=center;verticalAlign=middle;fontFamily=Helvetica;fontSize=12;fontColor=#FFFFFF;endArrow=openThin;endFill=0;fillColor=#FAE5C7;" parent="AHUMnntUv6HniEayIjRY-2" source="yKTz0fdrUKhPqo3VoGnw-94" target="24-RcjtqaWTgur0IXHR3-6" edge="1">
          <mxGeometry relative="1" as="geometry">
            <Array as="points">
              <mxPoint x="593.03" y="457" />
              <mxPoint x="593.03" y="551" />
              <mxPoint x="96.02999999999997" y="551" />
            </Array>
          </mxGeometry>
        </mxCell>
        <mxCell id="24-RcjtqaWTgur0IXHR3-18" style="edgeStyle=orthogonalEdgeStyle;shape=connector;curved=0;rounded=1;orthogonalLoop=1;jettySize=auto;html=1;exitX=0.5;exitY=1;exitDx=0;exitDy=0;entryX=1;entryY=1;entryDx=0;entryDy=0;labelBackgroundColor=default;strokeColor=#DB918D;strokeWidth=3;align=center;verticalAlign=middle;fontFamily=Helvetica;fontSize=12;fontColor=#FFFFFF;endArrow=openThin;endFill=0;fillColor=#FAE5C7;" parent="AHUMnntUv6HniEayIjRY-2" source="yKTz0fdrUKhPqo3VoGnw-92" target="24-RcjtqaWTgur0IXHR3-6" edge="1">
          <mxGeometry relative="1" as="geometry" />
        </mxCell>
        <mxCell id="24-RcjtqaWTgur0IXHR3-7" style="edgeStyle=orthogonalEdgeStyle;shape=connector;curved=0;rounded=1;orthogonalLoop=1;jettySize=auto;html=1;labelBackgroundColor=default;strokeColor=#DB918D;strokeWidth=3;align=center;verticalAlign=middle;fontFamily=Helvetica;fontSize=12;fontColor=#FFFFFF;endArrow=openThin;endFill=0;fillColor=#FAE5C7;" parent="AHUMnntUv6HniEayIjRY-2" source="24-RcjtqaWTgur0IXHR3-3" target="24-RcjtqaWTgur0IXHR3-6" edge="1">
          <mxGeometry relative="1" as="geometry" />
        </mxCell>
      </root>
    </mxGraphModel>
  </diagram>
</mxfile>
